<?xml version="1.0" encoding="UTF-8"?>
<!DOCTYPE svg PUBLIC "-//W3C//DTD SVG 1.1//EN" "http://www.w3.org/Graphics/SVG/1.1/DTD/svg11.dtd">
<svg xmlns="http://www.w3.org/2000/svg" version="1.1" width="512px" height="512px" style="shape-rendering:geometricPrecision; text-rendering:geometricPrecision; image-rendering:optimizeQuality; fill-rule:evenodd; clip-rule:evenodd" xmlns:xlink="http://www.w3.org/1999/xlink">
<g><path style="opacity:0.929" fill="#000000" d="M 406.5,-0.5 C 410.5,-0.5 414.5,-0.5 418.5,-0.5C 421.021,1.01922 423.521,2.68589 426,4.5C 430.253,11.3372 434.253,18.3372 438,25.5C 440.064,34.31 437.564,41.4766 430.5,47C 419.337,53.0806 408.337,59.414 397.5,66C 390.75,68.2339 386.75,65.9006 385.5,59C 385.826,56.5155 386.826,54.3488 388.5,52.5C 399.749,45.9592 410.916,39.2925 422,32.5C 420.548,27.2528 418.214,22.2528 415,17.5C 413.867,15.7888 412.367,15.2888 410.5,16C 353.476,48.841 296.809,82.1744 240.5,116C 244.636,121.303 249.303,126.137 254.5,130.5C 291.929,108.401 329.595,86.7346 367.5,65.5C 375.569,67.7389 377.569,72.5723 373.5,80C 337.833,100.833 302.167,121.667 266.5,142.5C 283.688,159.854 303.021,174.354 324.5,186C 326.592,187.853 327.592,190.186 327.5,193C 322.877,210.943 314.044,226.443 301,239.5C 287.659,252.089 272.826,262.589 256.5,271C 294.584,271.012 332.584,271.679 370.5,273C 371.701,273.903 372.535,275.069 373,276.5C 373.667,293.5 373.667,310.5 373,327.5C 370.565,332.224 366.731,333.724 361.5,332C 359.951,330.786 358.785,329.286 358,327.5C 357.5,314.171 357.333,300.837 357.5,287.5C 347.833,287.5 338.167,287.5 328.5,287.5C 328.667,302.837 328.5,318.17 328,333.5C 326.327,340.394 322.16,342.561 315.5,340C 313.232,338.442 312.066,336.276 312,333.5C 311.5,318.17 311.333,302.837 311.5,287.5C 288.833,287.5 266.167,287.5 243.5,287.5C 243.666,297.839 243.5,308.172 243,318.5C 241.607,321.366 239.274,322.699 236,322.5C 231.652,322.666 228.985,320.666 228,316.5C 227.5,306.839 227.334,297.172 227.5,287.5C 218.833,287.5 210.167,287.5 201.5,287.5C 201.667,309.169 201.5,330.836 201,352.5C 197.395,360.421 192.395,361.421 186,355.5C 185.5,332.836 185.333,310.169 185.5,287.5C 174.833,287.5 164.167,287.5 153.5,287.5C 153.94,319.862 153.44,352.195 152,384.5C 149.236,401.023 143.403,416.356 134.5,430.5C 131.206,433.74 127.539,434.24 123.5,432C 121.408,430.147 120.408,427.814 120.5,425C 125.932,414.289 130.432,403.122 134,391.5C 135.515,385.925 136.515,380.258 137,374.5C 137.333,341.833 137.667,309.167 138,276.5C 138.833,274.333 140.333,272.833 142.5,272C 150.493,271.5 158.493,271.334 166.5,271.5C 166.861,249.025 163.861,227.025 157.5,205.5C 144.828,214.855 133.994,213.189 125,200.5C 121.192,194.551 118.192,188.217 116,181.5C 115.326,174.344 117.826,168.51 123.5,164C 129.582,160.877 135.415,157.377 141,153.5C 140.21,150.439 139.376,147.273 138.5,144C 139.312,139.85 141.646,136.85 145.5,135C 168.664,121.919 191.664,108.586 214.5,95C 216.5,94.3333 218.5,94.3333 220.5,95C 223.463,96.9606 226.129,99.294 228.5,102C 229.167,102.667 229.833,102.667 230.5,102C 289.098,67.5406 347.765,33.374 406.5,-0.5 Z M 214.5,113.5 C 216.716,114.203 218.549,115.536 220,117.5C 245.864,149.046 275.698,175.879 309.5,198C 296.899,222.268 278.565,240.935 254.5,254C 232.174,267.083 208.174,272.583 182.5,270.5C 182.335,240.843 177.835,211.843 169,183.5C 165.465,171.729 161.632,160.062 157.5,148.5C 158.707,146.551 160.373,145.051 162.5,144C 180.061,134.059 197.394,123.892 214.5,113.5 Z M 145.5,169.5 C 146.496,169.414 147.329,169.748 148,170.5C 149.631,176.394 151.465,182.228 153.5,188C 150.272,190.963 146.605,193.463 142.5,195.5C 138.226,190.467 134.56,184.967 131.5,179C 136.071,175.579 140.737,172.412 145.5,169.5 Z"/></g>
<g><path style="opacity:0.931" fill="#000000" d="M 459.5,511.5 C 452.833,511.5 446.167,511.5 439.5,511.5C 415.789,508.848 392.122,505.015 368.5,500C 341.536,493.509 314.536,487.176 287.5,481C 266.167,476.333 244.833,476.333 223.5,481C 196.464,487.176 169.464,493.509 142.5,500C 118.878,505.015 95.2111,508.848 71.5,511.5C 64.8333,511.5 58.1667,511.5 51.5,511.5C 43.8739,506.452 42.0406,499.785 46,491.5C 56.1667,484.667 66.3333,477.833 76.5,471C 87.4656,461.703 98.1323,452.036 108.5,442C 118.116,441.979 120.949,446.479 117,455.5C 103.3,470.211 88.1334,483.044 71.5,494C 87.9713,493.4 104.305,491.4 120.5,488C 150.585,481.478 180.585,474.645 210.5,467.5C 210.333,454.496 210.5,441.496 211,428.5C 216.394,421.679 221.394,422.013 226,429.5C 226.333,441.167 226.667,452.833 227,464.5C 243.614,461.03 260.28,460.696 277,463.5C 277.333,443.833 277.667,424.167 278,404.5C 279.98,399.094 283.814,397.261 289.5,399C 290.667,400.167 291.833,401.333 293,402.5C 293.173,423.74 293.673,444.906 294.5,466C 326.428,473.649 358.428,480.982 390.5,488C 406.695,491.4 423.029,493.4 439.5,494C 411.19,476.024 388.69,452.524 372,423.5C 359.434,399.938 355.267,375.104 359.5,349C 364.878,345.304 369.378,346.138 373,351.5C 371.687,384.559 381.353,413.892 402,439.5C 408.802,447.303 415.969,454.803 423.5,462C 436.777,472.61 450.611,482.443 465,491.5C 468.959,499.785 467.126,506.452 459.5,511.5 Z"/></g>
</svg>
