<?xml version="1.0" encoding="UTF-8"?>
<!DOCTYPE svg PUBLIC "-//W3C//DTD SVG 1.1//EN" "http://www.w3.org/Graphics/SVG/1.1/DTD/svg11.dtd">
<svg xmlns="http://www.w3.org/2000/svg" version="1.1" width="512px" height="512px" style="shape-rendering:geometricPrecision; text-rendering:geometricPrecision; image-rendering:optimizeQuality; fill-rule:evenodd; clip-rule:evenodd" xmlns:xlink="http://www.w3.org/1999/xlink">
<g><path style="opacity:0.973" fill="#000000" d="M 131.5,15.5 C 156.256,15.0193 180.923,15.5193 205.5,17C 206.126,17.7504 206.626,18.5838 207,19.5C 207.5,31.4954 207.667,43.4954 207.5,55.5C 212.833,55.5 218.167,55.5 223.5,55.5C 223.5,60.8333 223.5,66.1667 223.5,71.5C 218.167,71.5 212.833,71.5 207.5,71.5C 207.173,76.544 207.506,81.544 208.5,86.5C 250.97,104.983 274.636,137.316 279.5,183.5C 273.839,183.907 268.172,184.24 262.5,184.5C 257.277,141.434 234.11,112.767 193,98.5C 191.557,89.6079 191.057,80.6079 191.5,71.5C 175.5,71.5 159.5,71.5 143.5,71.5C 143.943,80.6079 143.443,89.6079 142,98.5C 95.3038,115.87 71.8038,149.536 71.5,199.5C 130.167,199.5 188.833,199.5 247.5,199.5C 247.5,204.833 247.5,210.167 247.5,215.5C 188.833,215.5 130.167,215.5 71.5,215.5C 71.5,268.833 71.5,322.167 71.5,375.5C 119.5,375.5 167.5,375.5 215.5,375.5C 215.5,380.833 215.5,386.167 215.5,391.5C 167.5,391.5 119.5,391.5 71.5,391.5C 71.3334,405.504 71.5001,419.504 72,433.5C 73.9684,456.793 86.135,471.627 108.5,478C 116.994,479.066 125.328,478.399 133.5,476C 140.167,472.333 146.833,468.667 153.5,465C 162.833,461.667 172.167,461.667 181.5,465C 188.938,469.437 196.604,473.437 204.5,477C 208.418,478.156 212.418,478.656 216.5,478.5C 216.24,484.172 215.907,489.839 215.5,495.5C 200.533,495.123 187.2,490.289 175.5,481C 165.931,477.856 157.598,479.856 150.5,487C 131.769,496.731 112.436,498.064 92.5,491C 74.1965,482.697 62.3632,468.864 57,449.5C 55.8457,403.203 55.3457,356.87 55.5,310.5C 55.3507,263.473 55.8507,216.473 57,169.5C 66.2384,130.101 89.405,102.434 126.5,86.5C 127.494,81.544 127.827,76.544 127.5,71.5C 122.167,71.5 116.833,71.5 111.5,71.5C 111.5,66.1667 111.5,60.8333 111.5,55.5C 116.833,55.5 122.167,55.5 127.5,55.5C 127.333,43.4954 127.5,31.4954 128,19.5C 128.69,17.6498 129.856,16.3164 131.5,15.5 Z M 143.5,31.5 C 159.5,31.5 175.5,31.5 191.5,31.5C 191.5,39.5 191.5,47.5 191.5,55.5C 175.5,55.5 159.5,55.5 143.5,55.5C 143.5,47.5 143.5,39.5 143.5,31.5 Z"/></g>
<g><path style="opacity:0.976" fill="#000000" d="M 355.5,103.5 C 374.17,103.333 392.836,103.5 411.5,104C 412.416,104.374 413.25,104.874 414,105.5C 415.3,119.74 415.967,134.073 416,148.5C 424.913,160.658 433.579,172.992 442,185.5C 448.789,197.318 453.122,209.985 455,223.5C 455.667,243.167 455.667,262.833 455,282.5C 453.405,289.286 451.405,295.953 449,302.5C 448.333,308.167 448.333,313.833 449,319.5C 451.203,326.442 453.203,333.442 455,340.5C 455.667,384.167 455.667,427.833 455,471.5C 448.299,490.147 434.966,498.147 415,495.5C 409.5,495.333 404,495.167 398.5,495C 393.463,492.15 388.463,489.317 383.5,486.5C 381.239,487.648 378.905,488.148 376.5,488C 372.784,484.621 369.451,480.954 366.5,477C 378.594,466.884 390.594,467.218 402.5,478C 412.751,480.456 422.751,479.789 432.5,476C 436.382,472.736 438.549,468.57 439,463.5C 439.5,452.839 439.667,442.172 439.5,431.5C 418.167,431.5 396.833,431.5 375.5,431.5C 375.5,426.167 375.5,420.833 375.5,415.5C 396.833,415.5 418.167,415.5 439.5,415.5C 439.5,410.167 439.5,404.833 439.5,399.5C 418.167,399.5 396.833,399.5 375.5,399.5C 375.5,394.167 375.5,388.833 375.5,383.5C 396.833,383.5 418.167,383.5 439.5,383.5C 439.5,378.167 439.5,372.833 439.5,367.5C 418.167,367.5 396.833,367.5 375.5,367.5C 375.5,362.167 375.5,356.833 375.5,351.5C 396.5,351.5 417.5,351.5 438.5,351.5C 438.664,348.813 438.497,346.146 438,343.5C 435.797,336.558 433.797,329.558 432,322.5C 430.542,310.86 431.709,299.526 435.5,288.5C 415.511,287.5 395.511,287.167 375.5,287.5C 375.5,282.167 375.5,276.833 375.5,271.5C 396.833,271.5 418.167,271.5 439.5,271.5C 439.5,266.167 439.5,260.833 439.5,255.5C 418.167,255.5 396.833,255.5 375.5,255.5C 375.5,250.167 375.5,244.833 375.5,239.5C 396.836,239.667 418.169,239.5 439.5,239C 438.697,233.887 438.031,228.72 437.5,223.5C 416.833,223.5 396.167,223.5 375.5,223.5C 375.5,218.167 375.5,212.833 375.5,207.5C 394.836,207.667 414.17,207.5 433.5,207C 430.872,202.245 428.372,197.412 426,192.5C 417.087,180.342 408.421,168.008 400,155.5C 399.5,143.505 399.333,131.505 399.5,119.5C 388.833,119.5 378.167,119.5 367.5,119.5C 367.961,132.266 367.461,144.933 366,157.5C 356.778,169.723 347.945,182.223 339.5,195C 334.499,193.59 329.666,191.424 325,188.5C 325.335,185.745 326.335,183.078 328,180.5C 335.667,169.833 343.333,159.167 351,148.5C 351.333,134.833 351.667,121.167 352,107.5C 352.69,105.65 353.856,104.316 355.5,103.5 Z"/></g>
<g><path style="opacity:0.874" fill="#000000" d="M 142.5,114.5 C 144.664,119.646 146.664,124.979 148.5,130.5C 142.794,132.77 137.294,135.436 132,138.5C 128.354,134.552 125.187,130.219 122.5,125.5C 128.615,120.777 135.282,117.11 142.5,114.5 Z"/></g>
<g><path style="opacity:0.912" fill="#000000" d="M 108.5,135.5 C 113.419,138.748 117.753,142.748 121.5,147.5C 111.797,157.927 106.13,170.261 104.5,184.5C 98.828,184.24 93.1613,183.907 87.5,183.5C 89.6271,165.257 96.6271,149.257 108.5,135.5 Z"/></g>
<g><path style="opacity:0.973" fill="#000000" d="M 285.5,191.5 C 299.104,189.104 311.271,192.104 322,200.5C 324.442,203.048 326.108,206.048 327,209.5C 327.168,220.515 327.668,231.515 328.5,242.5C 335.5,246 342.5,249.5 349.5,253C 354.252,256.414 357.419,260.914 359,266.5C 359.667,282.833 359.667,299.167 359,315.5C 356.89,319.386 355.057,323.386 353.5,327.5C 355.057,331.614 356.89,335.614 359,339.5C 359.667,347.5 359.667,355.5 359,363.5C 356.89,367.386 355.057,371.386 353.5,375.5C 355.057,379.614 356.89,383.614 359,387.5C 359.667,395.5 359.667,403.5 359,411.5C 356.89,415.386 355.057,419.386 353.5,423.5C 355.057,427.614 356.89,431.614 359,435.5C 359.667,449.833 359.667,464.167 359,478.5C 356.167,486.667 350.667,492.167 342.5,495C 311.167,495.667 279.833,495.667 248.5,495C 240.333,492.167 234.833,486.667 232,478.5C 231.333,464.167 231.333,449.833 232,435.5C 234.11,431.614 235.943,427.614 237.5,423.5C 235.943,419.386 234.11,415.386 232,411.5C 231.333,403.5 231.333,395.5 232,387.5C 234.11,383.614 235.943,379.614 237.5,375.5C 235.943,371.386 234.11,367.386 232,363.5C 231.333,355.5 231.333,347.5 232,339.5C 234.11,335.614 235.943,331.614 237.5,327.5C 235.943,323.386 234.11,319.386 232,315.5C 231.333,299.167 231.333,282.833 232,266.5C 233.581,260.914 236.748,256.414 241.5,253C 248.5,249.5 255.5,246 262.5,242.5C 263.061,230.444 263.894,218.444 265,206.5C 269.777,198.694 276.61,193.694 285.5,191.5 Z M 288.5,208.5 C 294.262,208.149 299.928,208.649 305.5,210C 309.182,211.32 310.682,213.82 310,217.5C 308.048,219.894 305.548,221.394 302.5,222C 296.747,222.851 291.08,222.517 285.5,221C 279.874,218.513 279.208,215.18 283.5,211C 285.315,210.243 286.981,209.41 288.5,208.5 Z M 279.5,237.5 C 290.167,240.167 300.833,240.167 311.5,237.5C 311.103,242.959 311.603,248.292 313,253.5C 321.755,258.128 330.589,262.628 339.5,267C 340.701,267.903 341.535,269.069 342,270.5C 343.609,283.43 343.942,296.43 343,309.5C 341.5,312.5 340,315.5 338.5,318.5C 316.177,319.5 293.843,319.833 271.5,319.5C 271.5,324.833 271.5,330.167 271.5,335.5C 293.843,335.167 316.177,335.5 338.5,336.5C 345.167,346.5 345.167,356.5 338.5,366.5C 316.177,367.5 293.843,367.833 271.5,367.5C 271.5,372.833 271.5,378.167 271.5,383.5C 293.843,383.167 316.177,383.5 338.5,384.5C 345.167,394.5 345.167,404.5 338.5,414.5C 316.177,415.5 293.843,415.833 271.5,415.5C 271.5,420.833 271.5,426.167 271.5,431.5C 293.843,431.167 316.177,431.5 338.5,432.5C 340,435.5 341.5,438.5 343,441.5C 343.667,451.5 343.667,461.5 343,471.5C 342.5,476 340,478.5 335.5,479C 308.833,479.667 282.167,479.667 255.5,479C 251,478.5 248.5,476 248,471.5C 247.333,461.5 247.333,451.5 248,441.5C 251.351,435.805 253.851,429.805 255.5,423.5C 253.851,417.195 251.351,411.195 248,405.5C 247.333,401.5 247.333,397.5 248,393.5C 251.351,387.805 253.851,381.805 255.5,375.5C 253.851,369.195 251.351,363.195 248,357.5C 247.333,353.5 247.333,349.5 248,345.5C 251.351,339.805 253.851,333.805 255.5,327.5C 253.851,321.195 251.351,315.195 248,309.5C 247.076,296.11 247.409,282.777 249,269.5C 258.345,263.659 268.012,258.326 278,253.5C 279.397,248.292 279.897,242.959 279.5,237.5 Z"/></g>
<g><path style="opacity:1" fill="#000000" d="M 87.5,231.5 C 92.8333,231.5 98.1667,231.5 103.5,231.5C 103.5,236.833 103.5,242.167 103.5,247.5C 98.1667,247.5 92.8333,247.5 87.5,247.5C 87.5,242.167 87.5,236.833 87.5,231.5 Z"/></g>
<g><path style="opacity:1" fill="#000000" d="M 87.5,263.5 C 92.8333,263.5 98.1667,263.5 103.5,263.5C 103.5,287.5 103.5,311.5 103.5,335.5C 98.1667,335.5 92.8333,335.5 87.5,335.5C 87.5,311.5 87.5,287.5 87.5,263.5 Z"/></g>
<g><path style="opacity:1" fill="#000000" d="M 263.5,279.5 C 268.833,279.5 274.167,279.5 279.5,279.5C 279.5,287.5 279.5,295.5 279.5,303.5C 274.167,303.5 268.833,303.5 263.5,303.5C 263.5,295.5 263.5,287.5 263.5,279.5 Z"/></g>
</svg>
