<?xml version="1.0" encoding="UTF-8"?>
<!DOCTYPE svg PUBLIC "-//W3C//DTD SVG 1.1//EN" "http://www.w3.org/Graphics/SVG/1.1/DTD/svg11.dtd">
<svg xmlns="http://www.w3.org/2000/svg" version="1.1" width="512px" height="512px" style="shape-rendering:geometricPrecision; text-rendering:geometricPrecision; image-rendering:optimizeQuality; fill-rule:evenodd; clip-rule:evenodd" xmlns:xlink="http://www.w3.org/1999/xlink">
<g><path style="opacity:0.94" fill="#000000" d="M 171.5,-0.5 C 176.167,-0.5 180.833,-0.5 185.5,-0.5C 203.127,4.28656 215.294,15.2866 222,32.5C 244.58,15.8748 269.413,11.3748 296.5,19C 314.993,27.8207 330.16,40.6541 342,57.5C 344,61.5 344,65.5 342,69.5C 329.68,87.4957 313.514,100.662 293.5,109C 267.344,115.282 243.511,110.448 222,94.5C 212.972,117.538 196.139,128.371 171.5,127C 169.667,126.5 168.5,125.333 168,123.5C 167.333,113.5 167.333,103.5 168,93.5C 170.725,81.0498 177.225,71.0498 187.5,63.5C 177.975,56.3122 171.641,46.9789 168.5,35.5C 167.379,24.861 167.212,14.1943 168,3.5C 168.69,1.64977 169.856,0.316435 171.5,-0.5 Z M 183.5,17.5 C 195.077,20.5756 202.577,27.9089 206,39.5C 206.665,44.1561 207.165,48.8228 207.5,53.5C 190.582,47.7126 182.582,35.7126 183.5,17.5 Z M 274.5,31.5 C 288.88,33.0233 301.213,38.8566 311.5,49C 316.963,53.4271 321.129,58.5938 324,64.5C 313.564,78.6111 300.064,88.4444 283.5,94C 261.964,97.0435 243.464,90.8769 228,75.5C 221.431,62.9074 223.931,52.4074 235.5,44C 247.449,36.2938 260.449,32.1271 274.5,31.5 Z M 204.5,73.5 C 205.5,73.5 206.5,73.5 207.5,73.5C 208.277,87.1078 203.277,97.9411 192.5,106C 189.691,107.741 186.691,108.908 183.5,109.5C 182.832,92.8139 189.832,80.8139 204.5,73.5 Z"/></g>
<g><path style="opacity:0.931" fill="#000000" d="M 283.5,47.5 C 289.621,47.0899 295.621,47.5899 301.5,49C 306.196,59.4498 302.863,64.2832 291.5,63.5C 281.665,65.1659 277.832,61.1659 280,51.5C 280.69,49.6498 281.856,48.3164 283.5,47.5 Z"/></g>
<g><path style="opacity:0.918" fill="#000000" d="M 153.5,55.5 C 162.224,56.6179 165.058,61.2846 162,69.5C 122.667,90.1667 92.6667,120.167 72,159.5C 64.3771,165.812 58.8771,164.312 55.5,155C 77.2886,111.045 109.955,77.8786 153.5,55.5 Z"/></g>
<g><path style="opacity:0.919" fill="#000000" d="M 354.5,55.5 C 358.797,56.146 362.797,57.646 366.5,60C 405.854,82.6843 435.521,114.351 455.5,155C 452.123,164.312 446.623,165.812 439,159.5C 418.333,120.167 388.333,90.1667 349,69.5C 346.143,62.8918 347.977,58.2251 354.5,55.5 Z"/></g>
<g><path style="opacity:0.931" fill="#000000" d="M 240.5,151.5 C 291.026,147.504 327.859,167.837 351,212.5C 369.591,262.976 358.424,305.476 317.5,340C 286.428,361.022 253.095,365.355 217.5,353C 167.139,329.459 145.639,289.959 153,234.5C 161.476,198.024 182.976,172.524 217.5,158C 225.163,155.338 232.829,153.172 240.5,151.5 Z M 254.5,167.5 C 302.21,170.93 331.377,195.93 342,242.5C 345.638,285.74 328.138,316.907 289.5,336C 244.805,351.213 208.639,339.713 181,301.5C 164.333,270.833 164.333,240.167 181,209.5C 198.603,183.448 223.103,169.448 254.5,167.5 Z M 226.5,224.5 C 231.777,223.931 236.777,224.765 241.5,227C 245.23,230.463 248.23,234.463 250.5,239C 258.013,241.822 262.846,239.322 265,231.5C 272.212,223.632 280.379,222.466 289.5,228C 294.233,234 295.733,240.834 294,248.5C 289.9,262.249 282.9,274.249 273,284.5C 267.616,290.387 261.783,295.72 255.5,300.5C 239.824,288.327 227.658,273.327 219,255.5C 215.395,246.55 215.728,237.883 220,229.5C 222.326,227.934 224.492,226.268 226.5,224.5 Z"/></g>
<g><path style="opacity:0.946" fill="#000000" d="M 511.5,299.5 C 511.5,312.833 511.5,326.167 511.5,339.5C 510.684,341.144 509.35,342.31 507.5,343C 467.5,343.667 427.5,343.667 387.5,343C 385.667,342.5 384.5,341.333 384,339.5C 383.333,326.167 383.333,312.833 384,299.5C 391.016,270.485 409.183,252.985 438.5,247C 413.043,238.492 403.209,220.992 409,194.5C 417.821,173.388 433.654,164.555 456.5,168C 472.667,172.167 482.833,182.333 487,198.5C 490.42,219.828 482.586,235.328 463.5,245C 461.212,245.822 458.878,246.489 456.5,247C 485.832,253.169 504.165,270.669 511.5,299.5 Z M 440.5,184.5 C 454.981,182.318 464.814,187.985 470,201.5C 472.366,215.606 466.866,225.106 453.5,230C 439.394,232.366 429.894,226.866 425,213.5C 422.831,199.834 427.998,190.167 440.5,184.5 Z M 438.5,264.5 C 467.213,262.396 485.713,275.063 494,302.5C 495.123,310.797 495.623,319.13 495.5,327.5C 463.5,327.5 431.5,327.5 399.5,327.5C 395.753,300.832 405.419,280.999 428.5,268C 431.98,266.897 435.313,265.731 438.5,264.5 Z"/></g>
<g><path style="opacity:0.946" fill="#000000" d="M -0.5,296.5 C -0.5,291.5 -0.5,286.5 -0.5,281.5C 8.23354,260.052 21.4002,241.719 39,226.5C 38.5081,217.645 41.0081,209.811 46.5,203C 39.6552,198.684 37.8219,192.851 41,185.5C 44.2559,183.571 47.7559,183.071 51.5,184C 55.0112,186.847 58.5112,189.68 62,192.5C 68.3333,191.167 74.6667,191.167 81,192.5C 84.1185,190.385 86.9518,187.885 89.5,185C 100.036,181.003 104.536,184.503 103,195.5C 101.207,198.295 99.0402,200.795 96.5,203C 102.05,210.152 104.717,218.319 104.5,227.5C 123.968,243.6 137.301,263.766 144.5,288C 144.239,300.19 139.239,309.857 129.5,317C 124.061,319.371 118.394,320.037 112.5,319C 104.377,314.687 97.5439,308.854 92,301.5C 89.3878,309.391 85.7211,316.724 81,323.5C 74.6667,328.833 68.3333,328.833 62,323.5C 57.2789,316.724 53.6122,309.391 51,301.5C 45.4561,308.854 38.6228,314.687 30.5,319C 21.1403,321.102 13.307,318.602 7,311.5C 3.39389,306.955 0.893892,301.955 -0.5,296.5 Z M 66.5,208.5 C 78.4057,206.766 85.0724,211.766 86.5,223.5C 76.5,223.5 66.5,223.5 56.5,223.5C 56.6693,216.34 60.0027,211.34 66.5,208.5 Z M 57.5,239.5 C 66.8333,239.5 76.1667,239.5 85.5,239.5C 84.9267,244.847 84.26,250.18 83.5,255.5C 75.5,255.5 67.5,255.5 59.5,255.5C 58.74,250.18 58.0733,244.847 57.5,239.5 Z M 40.5,248.5 C 42.8733,258.948 44.3733,269.615 45,280.5C 39.7006,289.466 32.7006,296.799 24,302.5C 21.346,301.179 19.346,299.179 18,296.5C 16.5427,292.259 16.2093,287.926 17,283.5C 23.3566,270.77 31.19,259.103 40.5,248.5 Z M 101.5,248.5 C 111.614,258.7 119.781,270.367 126,283.5C 127.785,290.806 125.952,296.972 120.5,302C 118.711,302.52 117.044,302.187 115.5,301C 109.074,294.632 103.241,287.798 98,280.5C 98.8323,269.829 99.9989,259.162 101.5,248.5 Z M 62.5,271.5 C 68.5,271.5 74.5,271.5 80.5,271.5C 79.5,276.833 78.5,282.167 77.5,287.5C 73.5,287.5 69.5,287.5 65.5,287.5C 64.5,282.167 63.5,276.833 62.5,271.5 Z M 70.5,303.5 C 72.337,303.639 72.6704,304.306 71.5,305.5C 70.7025,305.043 70.3691,304.376 70.5,303.5 Z"/></g>
<g><path style="opacity:0.931" fill="#000000" d="M 223.5,207.5 C 235.412,205.483 246.079,208.149 255.5,215.5C 269.271,205.827 283.604,204.994 298.5,213C 310.112,222.922 314.278,235.422 311,250.5C 307.121,266.36 299.788,280.36 289,292.5C 280.061,302.444 270.228,311.278 259.5,319C 256.036,319.817 252.702,319.483 249.5,318C 232.828,305.332 218.995,290.165 208,272.5C 199.846,258.734 197.512,244.067 201,228.5C 205.502,218.161 213.002,211.161 223.5,207.5 Z M 226.5,224.5 C 224.492,226.268 222.326,227.934 220,229.5C 215.728,237.883 215.395,246.55 219,255.5C 227.658,273.327 239.824,288.327 255.5,300.5C 261.783,295.72 267.616,290.387 273,284.5C 282.9,274.249 289.9,262.249 294,248.5C 295.733,240.834 294.233,234 289.5,228C 280.379,222.466 272.212,223.632 265,231.5C 262.846,239.322 258.013,241.822 250.5,239C 248.23,234.463 245.23,230.463 241.5,227C 236.777,224.765 231.777,223.931 226.5,224.5 Z"/></g>
<g><path style="opacity:0.918" fill="#000000" d="M 61.5,347.5 C 65.8027,346.796 69.3027,348.13 72,351.5C 92.6667,390.833 122.667,420.833 162,441.5C 165.007,448.819 162.674,453.485 155,455.5C 112.199,434.367 79.5321,402.7 57,360.5C 54.8187,354.877 56.3187,350.544 61.5,347.5 Z"/></g>
<g><path style="opacity:0.918" fill="#000000" d="M 443.5,347.5 C 450.148,346.654 454.148,349.487 455.5,356C 434.367,398.801 402.7,431.468 360.5,454C 355,456.277 350.833,454.777 348,449.5C 347.245,446.697 347.578,444.03 349,441.5C 388.333,420.833 418.333,390.833 439,351.5C 440.397,349.93 441.897,348.596 443.5,347.5 Z"/></g>
<g><path style="opacity:0.954" fill="#000000" d="M 259.5,511.5 C 256.833,511.5 254.167,511.5 251.5,511.5C 249.856,510.684 248.69,509.35 248,507.5C 247.5,498.173 247.334,488.839 247.5,479.5C 218.778,481.592 200.278,468.925 192,441.5C 191.333,431.5 191.333,421.5 192,411.5C 192.374,410.584 192.874,409.75 193.5,409C 204.068,407.381 214.735,407.048 225.5,408C 233.685,409.51 240.852,413.01 247,418.5C 246.336,409.249 250.503,405.749 259.5,408C 261.333,408.5 262.5,409.667 263,411.5C 269.306,405.43 276.806,401.596 285.5,400C 296.265,399.048 306.932,399.381 317.5,401C 318.126,401.75 318.626,402.584 319,403.5C 319.667,413.5 319.667,423.5 319,433.5C 310.722,460.925 292.222,473.592 263.5,471.5C 263.667,483.505 263.5,495.505 263,507.5C 262.31,509.35 261.144,510.684 259.5,511.5 Z M 295.5,415.5 C 298.167,415.5 300.833,415.5 303.5,415.5C 303.833,442.5 290.5,455.833 263.5,455.5C 262.358,432.354 273.025,419.021 295.5,415.5 Z M 207.5,423.5 C 234.5,423.167 247.833,436.5 247.5,463.5C 220.5,463.833 207.167,450.5 207.5,423.5 Z"/></g>
</svg>
