<?xml version="1.0" encoding="UTF-8"?>
<!DOCTYPE svg PUBLIC "-//W3C//DTD SVG 1.1//EN" "http://www.w3.org/Graphics/SVG/1.1/DTD/svg11.dtd">
<svg xmlns="http://www.w3.org/2000/svg" version="1.1" width="512px" height="512px" style="shape-rendering:geometricPrecision; text-rendering:geometricPrecision; image-rendering:optimizeQuality; fill-rule:evenodd; clip-rule:evenodd" xmlns:xlink="http://www.w3.org/1999/xlink">
<g><path style="opacity:0.938" fill="#000000" d="M 232.5,-0.5 C 247.833,-0.5 263.167,-0.5 278.5,-0.5C 300.471,1.99766 321.971,6.99766 343,14.5C 351.746,7.21062 361.58,2.21062 372.5,-0.5C 379.833,-0.5 387.167,-0.5 394.5,-0.5C 420.904,6.07239 437.07,22.7391 443,49.5C 443.333,122.833 443.667,196.167 444,269.5C 481.698,291.698 504.198,324.365 511.5,367.5C 511.5,378.167 511.5,388.833 511.5,399.5C 499.833,462.5 462.5,499.833 399.5,511.5C 388.833,511.5 378.167,511.5 367.5,511.5C 354.861,509.291 342.528,505.625 330.5,500.5C 313.048,505.856 295.381,509.523 277.5,511.5C 262.833,511.5 248.167,511.5 233.5,511.5C 148.775,502.069 83.2755,461.736 37,390.5C 15.9712,355.581 3.47124,317.914 -0.5,277.5C -0.5,262.833 -0.5,248.167 -0.5,233.5C 11.9865,133.191 63.9865,61.6912 155.5,19C 180.377,8.86452 206.043,2.36452 232.5,-0.5 Z M 235.5,17.5 C 244.092,36.3744 251.925,55.7077 259,75.5C 269.218,96.5301 286.051,106.03 309.5,104C 314.285,103.294 318.785,101.794 323,99.5C 323.667,124.167 323.667,148.833 323,173.5C 291.489,198.048 282.155,229.381 295,267.5C 297.452,272.907 300.286,278.074 303.5,283C 261.351,319.454 246.851,364.954 260,419.5C 268.696,447.25 284.529,469.917 307.5,487.5C 297.381,490.399 287.048,492.232 276.5,493C 241.34,496.167 207.34,491.501 174.5,479C 179.268,468.631 184.435,458.464 190,448.5C 199.421,434.665 208.087,420.332 216,405.5C 222.392,390.382 229.059,375.382 236,360.5C 241.443,343.973 238.776,328.973 228,315.5C 214.284,299.906 200.451,284.406 186.5,269C 181.494,265.009 175.827,262.343 169.5,261C 145.587,257.826 121.587,256.159 97.5,256C 83.1896,258.974 73.0229,267.141 67,280.5C 62.3333,295.833 57.6667,311.167 53,326.5C 49.9399,339.865 52.2732,352.199 60,363.5C 69.6667,373.167 79.3333,382.833 89,392.5C 96.965,403.731 97.6317,415.398 91,427.5C 29.2494,365.398 6.41603,291.064 22.5,204.5C 41.5466,204.935 60.5466,204.435 79.5,203C 91.0173,199.911 101.017,194.244 109.5,186C 130.667,166.167 151.833,146.333 173,126.5C 183.611,111.385 187.278,94.7183 184,76.5C 178.826,62.1728 173.159,48.1728 167,34.5C 189.135,25.5779 211.968,19.9113 235.5,17.5 Z M 256.5,17.5 C 281.481,17.2191 305.814,21.0524 329.5,29C 329.957,29.414 330.291,29.914 330.5,30.5C 327.436,36.5245 325.27,42.8578 324,49.5C 323.667,59.1667 323.333,68.8333 323,78.5C 310.504,88.4183 297.67,88.9183 284.5,80C 280.813,76.7898 277.979,72.9565 276,68.5C 269.395,51.5154 262.895,34.5154 256.5,17.5 Z M 374.5,17.5 C 398.648,15.1475 415.148,25.1475 424,47.5C 425.319,124.464 425.985,201.464 426,278.5C 426.785,280.286 427.951,281.786 429.5,283C 479.74,309.983 500.24,351.816 491,408.5C 481.409,445.093 459.242,470.926 424.5,486C 375.166,502.625 332.999,491.792 298,453.5C 270.616,416.975 265.949,377.642 284,335.5C 296.22,312.28 314.054,294.78 337.5,283C 339.049,281.786 340.215,280.286 341,278.5C 341.333,203.167 341.667,127.833 342,52.5C 346.128,34.5409 356.961,22.8743 374.5,17.5 Z M 147.5,42.5 C 148.5,42.5 149.5,42.5 150.5,42.5C 154.505,53.0036 159.005,63.3369 164,73.5C 169.281,88.5324 167.281,102.532 158,115.5C 135.099,137.737 111.599,159.237 87.5,180C 82.8281,182.837 77.8281,184.837 72.5,186C 57.4889,186.833 42.4889,186.666 27.5,185.5C 48.7251,121.953 88.7251,74.2859 147.5,42.5 Z M 380.5,51.5 C 385.28,50.6409 388.78,52.3075 391,56.5C 391.5,74.1635 391.667,91.8302 391.5,109.5C 386.167,109.5 380.833,109.5 375.5,109.5C 375.333,91.8302 375.5,74.1635 376,56.5C 377.025,54.313 378.525,52.6464 380.5,51.5 Z M 375.5,127.5 C 380.833,127.5 386.167,127.5 391.5,127.5C 391.333,188.834 391.5,250.168 392,311.5C 392.785,313.286 393.951,314.786 395.5,316C 436.047,328.274 454.214,355.44 450,397.5C 440.508,431.008 418.342,449.008 383.5,451.5C 348.511,448.598 326.344,430.265 317,396.5C 312.801,361.727 326.301,336.56 357.5,321C 361.683,319.204 366.016,317.871 370.5,317C 372.726,315.773 374.226,313.939 375,311.5C 375.5,250.168 375.667,188.834 375.5,127.5 Z M 322.5,197.5 C 323.663,221.33 323.83,245.33 323,269.5C 321.846,270.743 320.512,271.743 319,272.5C 306.45,254.508 304.117,235.175 312,214.5C 315.01,208.47 318.51,202.804 322.5,197.5 Z M 99.5,273.5 C 119.877,274.307 140.211,275.807 160.5,278C 168.631,278.482 175.131,281.982 180,288.5C 191.294,302.129 202.961,315.463 215,328.5C 220.554,336.129 221.888,344.462 219,353.5C 210.941,371.952 202.607,390.286 194,408.5C 179.637,428.561 167.304,449.894 157,472.5C 139.367,464.515 123.034,454.515 108,442.5C 109.756,431.545 111.589,420.545 113.5,409.5C 113.065,398.692 109.565,389.025 103,380.5C 93.6667,371.167 84.3333,361.833 75,352.5C 71.149,347.095 69.4824,341.095 70,334.5C 74.4643,318.774 79.131,303.107 84,287.5C 87.4922,280.834 92.6589,276.168 99.5,273.5 Z"/></g>
<g><path style="opacity:0.942" fill="#000000" d="M 376.5,33.5 C 393.059,31.1836 403.892,37.8503 409,53.5C 409.333,136.167 409.667,218.833 410,301.5C 453.649,319.112 472.983,351.445 468,398.5C 457.151,442.687 428.984,466.353 383.5,469.5C 338.016,466.353 309.849,442.687 299,398.5C 294.016,351.447 313.35,319.114 357,301.5C 357.333,218.833 357.667,136.167 358,53.5C 360.587,43.4168 366.753,36.7502 376.5,33.5 Z M 380.5,51.5 C 378.525,52.6464 377.025,54.313 376,56.5C 375.5,74.1635 375.333,91.8302 375.5,109.5C 380.833,109.5 386.167,109.5 391.5,109.5C 391.667,91.8302 391.5,74.1635 391,56.5C 388.78,52.3075 385.28,50.6409 380.5,51.5 Z M 375.5,127.5 C 375.667,188.834 375.5,250.168 375,311.5C 374.226,313.939 372.726,315.773 370.5,317C 366.016,317.871 361.683,319.204 357.5,321C 326.301,336.56 312.801,361.727 317,396.5C 326.344,430.265 348.511,448.598 383.5,451.5C 418.342,449.008 440.508,431.008 450,397.5C 454.214,355.44 436.047,328.274 395.5,316C 393.951,314.786 392.785,313.286 392,311.5C 391.5,250.168 391.333,188.834 391.5,127.5C 386.167,127.5 380.833,127.5 375.5,127.5 Z"/></g>
<g><path style="opacity:0.917" fill="#000000" d="M 466.5,41.5 C 476.839,41.3335 487.172,41.5002 497.5,42C 505.09,47.2152 505.423,52.8818 498.5,59C 487.167,59.6667 475.833,59.6667 464.5,59C 457.52,52.1314 458.187,46.2981 466.5,41.5 Z"/></g>
<g><path style="opacity:0.915" fill="#000000" d="M 466.5,75.5 C 473.841,75.3337 481.174,75.5003 488.5,76C 494.172,78.7675 496.006,83.2675 494,89.5C 492.786,91.0488 491.286,92.2155 489.5,93C 481.167,93.6667 472.833,93.6667 464.5,93C 457.552,86.2518 458.218,80.4184 466.5,75.5 Z"/></g>
<g><path style="opacity:0.92" fill="#000000" d="M 468.5,109.5 C 478.58,109.077 488.58,109.577 498.5,111C 503.648,114.334 504.814,118.834 502,124.5C 501.097,125.701 499.931,126.535 498.5,127C 487.167,127.667 475.833,127.667 464.5,127C 458.786,122.747 458.119,117.747 462.5,112C 464.611,111.155 466.611,110.322 468.5,109.5 Z"/></g>
<g><path style="opacity:0.916" fill="#000000" d="M 464.5,144.5 C 473.173,144.334 481.84,144.5 490.5,145C 494.327,148.308 495.494,152.474 494,157.5C 492.363,159.81 490.196,161.31 487.5,162C 479.754,162.896 472.087,162.563 464.5,161C 457.884,155.552 457.884,150.052 464.5,144.5 Z"/></g>
<g><path style="opacity:0.92" fill="#000000" d="M 464.5,178.5 C 475.838,178.333 487.172,178.5 498.5,179C 504.654,183.938 504.988,189.272 499.5,195C 488.573,196.597 477.573,196.931 466.5,196C 457.997,191.135 457.33,185.301 464.5,178.5 Z"/></g>
<g><path style="opacity:0.915" fill="#000000" d="M 465.5,212.5 C 473.507,212.334 481.507,212.5 489.5,213C 494.155,215.897 495.655,220.063 494,225.5C 492.891,227.815 491.057,229.315 488.5,230C 480.089,230.905 471.755,230.572 463.5,229C 457.942,222.736 458.608,217.236 465.5,212.5 Z"/></g>
<g><path style="opacity:0.92" fill="#000000" d="M 465.5,246.5 C 476.172,246.333 486.839,246.5 497.5,247C 502.426,249.353 504.26,253.186 503,258.5C 501.833,261 500,262.833 497.5,264C 486.833,264.667 476.167,264.667 465.5,264C 457.581,258.173 457.581,252.34 465.5,246.5 Z"/></g>
</svg>
