<?xml version="1.0" encoding="UTF-8"?>
<!DOCTYPE svg PUBLIC "-//W3C//DTD SVG 1.1//EN" "http://www.w3.org/Graphics/SVG/1.1/DTD/svg11.dtd">
<svg xmlns="http://www.w3.org/2000/svg" version="1.1" width="512px" height="512px" style="shape-rendering:geometricPrecision; text-rendering:geometricPrecision; image-rendering:optimizeQuality; fill-rule:evenodd; clip-rule:evenodd" xmlns:xlink="http://www.w3.org/1999/xlink">
<g><path style="opacity:0.915" fill="#000000" d="M 254.5,63.5 C 298.694,66.8606 323.527,90.5273 329,134.5C 359.833,169.333 390.667,204.167 421.5,239C 428.833,239.333 436.167,239.667 443.5,240C 446.981,243.397 447.314,247.064 444.5,251C 438.621,252.41 432.621,252.91 426.5,252.5C 433.489,327.013 405.823,384.513 343.5,425C 286.503,455.58 229.17,456.247 171.5,427C 107.134,387.169 78.467,329.335 85.5,253.5C 79.4206,252.915 73.4206,252.082 67.5,251C 65.5218,248.503 65.0218,245.669 66,242.5C 66.5,241.333 67.3333,240.5 68.5,240C 75.8559,239.831 83.1892,239.331 90.5,238.5C 121,204.167 151.5,169.833 182,135.5C 184.558,104.197 200.058,82.0305 228.5,69C 237.078,66.0526 245.745,64.2193 254.5,63.5 Z M 244.5,77.5 C 246.167,77.5 247.833,77.5 249.5,77.5C 249.043,81.5839 249.71,85.4172 251.5,89C 255.094,91.2473 258.261,90.7473 261,87.5C 262.316,84.3117 262.816,80.9783 262.5,77.5C 268.606,77.785 274.272,79.4517 279.5,82.5C 276.862,86.1347 276.029,90.1347 277,94.5C 279.775,97.6539 282.942,98.1539 286.5,96C 288.046,93.7432 289.712,91.5765 291.5,89.5C 296.5,92.5 300.5,96.5 303.5,101.5C 300.567,102.93 298.067,104.93 296,107.5C 294.793,112.774 296.793,115.774 302,116.5C 305.071,116.216 307.905,115.216 310.5,113.5C 313.251,118.836 314.918,124.503 315.5,130.5C 308.731,128.687 304.398,131.021 302.5,137.5C 302.745,140.168 304.079,142.002 306.5,143C 309.482,143.498 312.482,143.665 315.5,143.5C 314.634,149.295 313.301,154.962 311.5,160.5C 309.158,160.496 307.158,159.663 305.5,158C 296.873,156.743 294.04,160.243 297,168.5C 299.428,169.63 301.595,171.13 303.5,173C 300.321,177.512 296.488,181.346 292,184.5C 289.836,182.71 288.002,180.544 286.5,178C 285.128,177.598 283.795,177.098 282.5,176.5C 278.307,177.022 276.307,179.355 276.5,183.5C 276.518,186.524 277.518,189.19 279.5,191.5C 274.271,194.558 268.604,196.225 262.5,196.5C 263.952,185.925 259.952,182.592 250.5,186.5C 249.583,189.758 249.249,193.091 249.5,196.5C 243.195,196.257 237.195,194.757 231.5,192C 234.844,188.816 236.011,184.982 235,180.5C 232.469,176.798 229.302,175.965 225.5,178C 223.3,180.234 221.467,182.734 220,185.5C 218.127,183.291 215.96,181.458 213.5,180C 211.874,177.372 209.874,175.039 207.5,173C 210.266,171.533 212.766,169.7 215,167.5C 216.93,161.859 215.097,158.526 209.5,157.5C 206.219,157.891 203.385,159.224 201,161.5C 198.243,155.805 196.743,149.805 196.5,143.5C 199.518,143.665 202.518,143.498 205.5,143C 209.032,139.61 209.366,135.943 206.5,132C 203.312,130.684 199.978,130.184 196.5,130.5C 196.658,124.703 197.991,119.203 200.5,114C 203.29,114.744 206.123,115.577 209,116.5C 215.023,115.808 217.023,112.474 215,106.5C 212.411,104.789 209.911,102.955 207.5,101C 211.348,96.9844 215.348,93.1511 219.5,89.5C 221.727,92.1369 224.06,94.6369 226.5,97C 232.011,98.2486 235.011,96.082 235.5,90.5C 234.786,87.9298 233.786,85.4298 232.5,83C 236.218,80.4858 240.218,78.6525 244.5,77.5 Z M 183.5,152.5 C 196.686,194.609 225.353,213.442 269.5,209C 299.713,201.787 319.213,183.287 328,153.5C 353.167,182 378.333,210.5 403.5,239C 400.167,239.333 396.833,239.667 393.5,240C 389.014,244.902 389.681,248.902 395.5,252C 399.833,252.333 404.167,252.667 408.5,253C 383.063,304.752 342.063,336.752 285.5,349C 212.806,358.559 155.639,333.393 114,273.5C 110.245,266.991 106.745,260.324 103.5,253.5C 107.796,252.672 112.129,252.172 116.5,252C 120.292,249.947 121.458,246.781 120,242.5C 119.167,241.667 118.333,240.833 117.5,240C 114.167,239.667 110.833,239.333 107.5,239C 133.202,210.385 158.535,181.552 183.5,152.5 Z M 253.5,232.5 C 259.193,234.179 264.526,236.679 269.5,240C 262.094,241.357 254.761,242.69 247.5,244C 250.163,240.507 252.163,236.673 253.5,232.5 Z M 265.5,253.5 C 274.779,252.807 283.779,253.973 292.5,257C 283.178,272.704 283.178,288.37 292.5,304C 265.466,312.1 242.966,305.266 225,283.5C 223,281.5 223,279.5 225,277.5C 235.575,264.466 249.075,256.466 265.5,253.5 Z M 188.5,262.5 C 196.101,267.099 202.434,273.099 207.5,280.5C 202.479,287.688 196.312,293.688 189,298.5C 187.217,292.624 186.05,286.624 185.5,280.5C 186.21,274.439 187.21,268.439 188.5,262.5 Z M 304.5,262.5 C 312.766,266.432 319.099,272.432 323.5,280.5C 318.886,288.281 312.72,294.614 305,299.5C 296.667,287.216 296.5,274.882 304.5,262.5 Z M 96.5,270.5 C 109.648,294.16 127.315,313.993 149.5,330C 138.333,337.167 127.167,344.333 116,351.5C 102.195,326.323 95.6955,299.323 96.5,270.5 Z M 413.5,271.5 C 415.746,299.863 409.746,326.53 395.5,351.5C 384.5,344.333 373.5,337.167 362.5,330C 379.041,317.793 393.208,303.293 405,286.5C 408.089,281.594 410.923,276.594 413.5,271.5 Z M 247.5,316.5 C 255.012,318.702 262.679,320.202 270.5,321C 265.414,323.96 260.247,326.794 255,329.5C 252.488,325.139 249.988,320.806 247.5,316.5 Z M 159.5,338.5 C 164.297,340.149 168.797,342.482 173,345.5C 183.515,360.011 194.015,374.511 204.5,389C 203.683,390.49 202.85,391.99 202,393.5C 194.436,400.975 187.103,408.642 180,416.5C 156.358,403.527 137.192,385.694 122.5,363C 135.242,355.306 147.575,347.14 159.5,338.5 Z M 348.5,338.5 C 349.873,338.343 351.207,338.51 352.5,339C 364.66,347.004 376.66,355.171 388.5,363.5C 373.647,385.688 354.647,403.355 331.5,416.5C 322.827,407.827 314.494,398.827 306.5,389.5C 316.86,375.64 327.027,361.64 337,347.5C 340.733,344.255 344.566,341.255 348.5,338.5 Z M 197.5,355.5 C 207.929,358.919 218.596,361.419 229.5,363C 224.667,368.5 219.833,374 215,379.5C 208.414,371.973 202.581,363.973 197.5,355.5 Z M 314.5,355.5 C 308.885,363.622 303.051,371.622 297,379.5C 292.2,373.698 287.033,368.198 281.5,363C 292.7,361.283 303.7,358.783 314.5,355.5 Z M 246.5,364.5 C 252.842,364.334 259.175,364.5 265.5,365C 273.352,373.351 281.018,381.851 288.5,390.5C 277.86,405.64 267.027,420.64 256,435.5C 244.833,420.5 233.667,405.5 222.5,390.5C 230.507,381.801 238.507,373.135 246.5,364.5 Z M 212.5,400.5 C 221.162,411.174 229.495,422.174 237.5,433.5C 222.104,432.817 207.437,428.983 193.5,422C 200.042,414.962 206.375,407.795 212.5,400.5 Z M 297.5,400.5 C 304.828,407.302 311.828,414.469 318.5,422C 304.288,428.97 289.288,432.97 273.5,434C 282.132,423.215 290.132,412.048 297.5,400.5 Z"/></g>
<g><path style="opacity:0.877" fill="#000000" d="M 253.5,130.5 C 256.564,130.144 259.231,130.977 261.5,133C 266.667,138.167 271.833,143.333 277,148.5C 281.757,157.076 279.257,160.909 269.5,160C 263,153.5 256.5,147 250,140.5C 248.581,136.082 249.748,132.749 253.5,130.5 Z"/></g>
<g><path style="opacity:0.919" fill="#000000" d="M 247.5,217.5 C 256.572,218.03 264.905,220.863 272.5,226C 281.363,231.265 289.696,237.265 297.5,244C 311.757,249.204 323.59,257.704 333,269.5C 335.533,272.852 337.366,276.519 338.5,280.5C 334.275,291.408 327.275,300.241 317.5,307C 310.942,311.446 303.942,315.113 296.5,318C 283.451,330.275 268.284,338.775 251,343.5C 248.648,343.695 246.648,343.028 245,341.5C 238.667,328.833 232.333,316.167 226,303.5C 222.123,300.113 218.456,296.446 215,292.5C 207.273,302.736 197.44,310.069 185.5,314.5C 183.701,314.423 182.034,313.923 180.5,313C 171.337,293.528 170.503,273.694 178,253.5C 179.37,248.433 182.537,246.267 187.5,247C 198.435,251.938 207.601,259.105 215,268.5C 218.667,264.833 222.333,261.167 226,257.5C 232.354,244.792 238.687,232.125 245,219.5C 245.995,218.934 246.828,218.267 247.5,217.5 Z M 253.5,232.5 C 252.163,236.673 250.163,240.507 247.5,244C 254.761,242.69 262.094,241.357 269.5,240C 264.526,236.679 259.193,234.179 253.5,232.5 Z M 265.5,253.5 C 249.075,256.466 235.575,264.466 225,277.5C 223,279.5 223,281.5 225,283.5C 242.966,305.266 265.466,312.1 292.5,304C 283.178,288.37 283.178,272.704 292.5,257C 283.779,253.973 274.779,252.807 265.5,253.5 Z M 188.5,262.5 C 187.21,268.439 186.21,274.439 185.5,280.5C 186.05,286.624 187.217,292.624 189,298.5C 196.312,293.688 202.479,287.688 207.5,280.5C 202.434,273.099 196.101,267.099 188.5,262.5 Z M 304.5,262.5 C 296.5,274.882 296.667,287.216 305,299.5C 312.72,294.614 318.886,288.281 323.5,280.5C 319.099,272.432 312.766,266.432 304.5,262.5 Z M 247.5,316.5 C 249.988,320.806 252.488,325.139 255,329.5C 260.247,326.794 265.414,323.96 270.5,321C 262.679,320.202 255.012,318.702 247.5,316.5 Z"/></g>
</svg>
