<?xml version="1.0" encoding="UTF-8"?>
<!DOCTYPE svg PUBLIC "-//W3C//DTD SVG 1.1//EN" "http://www.w3.org/Graphics/SVG/1.1/DTD/svg11.dtd">
<svg xmlns="http://www.w3.org/2000/svg" version="1.1" width="512px" height="512px" style="shape-rendering:geometricPrecision; text-rendering:geometricPrecision; image-rendering:optimizeQuality; fill-rule:evenodd; clip-rule:evenodd" xmlns:xlink="http://www.w3.org/1999/xlink">
<g><path style="opacity:0.986" fill="#262626" d="M 415.5,-0.5 C 430.167,-0.5 444.833,-0.5 459.5,-0.5C 468.745,0.660577 478.078,2.16058 487.5,4C 494.138,8.01657 496.304,13.8499 494,21.5C 488.883,32.1833 484.55,43.1833 481,54.5C 475.399,79.9063 468.399,104.906 460,129.5C 450.13,154.692 434.297,175.192 412.5,191C 392.011,202.833 370.011,207.167 346.5,204C 340.451,202.855 334.451,201.855 328.5,201C 317.798,220.091 311.798,240.424 310.5,262C 313.833,264 317.167,266 320.5,268C 323.713,271.549 327.213,274.716 331,277.5C 359.751,268.354 384.418,274.687 405,296.5C 429.114,287.418 450.448,291.752 469,309.5C 489.025,302.274 503.192,308.274 511.5,327.5C 511.5,332.5 511.5,337.5 511.5,342.5C 508.987,349.537 504.654,355.37 498.5,360C 490.5,366 482.5,372 474.5,378C 469.968,381.421 465.635,381.254 461.5,377.5C 459.278,373.904 459.111,370.237 461,366.5C 469.743,359.546 478.576,352.712 487.5,346C 497.081,338.106 496.748,330.773 486.5,324C 484.5,323.333 482.5,323.333 480.5,324C 425.998,358.083 371.665,392.417 317.5,427C 311.918,431.044 305.751,433.544 299,434.5C 292.668,434.416 287.168,432.25 282.5,428C 267.013,415.758 251.347,403.758 235.5,392C 220.833,391.667 206.167,391.333 191.5,391C 185.628,384.775 186.295,379.442 193.5,375C 251.833,374.667 310.167,374.333 368.5,374C 376.926,369.394 379.426,362.56 376,353.5C 373.713,350.538 370.88,348.371 367.5,347C 300.262,335.845 232.928,325.345 165.5,315.5C 162.076,315.482 158.743,315.982 155.5,317C 137.992,326.588 120.325,335.921 102.5,345C 97.9029,346.586 93.2363,347.919 88.5,349C 66.1667,349.333 43.8333,349.667 21.5,350C 19.6667,351.167 18.1667,352.667 17,354.5C 16.3333,379.167 16.3333,403.833 17,428.5C 17.8333,432 20,434.167 23.5,435C 47.5,435.333 71.5,435.667 95.5,436C 154.018,454.062 212.352,472.728 270.5,492C 281.281,496.294 291.281,494.96 300.5,488C 346.5,453 392.5,418 438.5,383C 443.195,380.743 447.528,381.243 451.5,384.5C 452.569,387.408 452.736,390.408 452,393.5C 449.876,396.325 447.376,398.825 444.5,401C 398.549,435.283 352.883,469.949 307.5,505C 302.633,507.774 297.633,509.941 292.5,511.5C 286.167,511.5 279.833,511.5 273.5,511.5C 214.311,492.272 154.978,473.105 95.5,454C 69.1528,453.019 42.8194,452.019 16.5,451C 7.91495,447.916 2.24829,442.083 -0.5,433.5C -0.5,405.833 -0.5,378.167 -0.5,350.5C 2.318,341.517 8.318,335.683 17.5,333C 41.1252,331.717 64.7918,331.051 88.5,331C 90.8782,330.489 93.2115,329.822 95.5,329C 110.487,321.508 125.153,313.508 139.5,305C 145.275,302.075 151.275,299.742 157.5,298C 174.537,277.652 196.204,269.985 222.5,275C 225.393,275.631 228.226,276.464 231,277.5C 238.412,270.09 246.912,264.256 256.5,260C 248.443,238.373 236.943,218.873 222,201.5C 202.34,211.527 181.506,215.027 159.5,212C 139.338,208.833 122.838,199.333 110,183.5C 98.807,169.452 90.4737,153.786 85,136.5C 79.8429,117.538 74.8429,98.5383 70,79.5C 66.5293,70.0876 62.8626,60.7543 59,51.5C 58.1354,46.7609 59.3021,42.5943 62.5,39C 111.411,27.9909 158.411,33.6576 203.5,56C 244.502,78.0052 261.169,112.005 253.5,158C 261.385,167.045 269.051,176.212 276.5,185.5C 279.448,179.103 282.781,172.936 286.5,167C 274.376,148.995 269.876,129.162 273,107.5C 278.535,72.3324 296.368,45.4991 326.5,27C 354.239,11.2515 383.905,2.08481 415.5,-0.5 Z"/></g>
<g><path style="opacity:1" fill="#86d155" d="M 418.5,16.5 C 437.273,15.9025 455.94,16.9025 474.5,19.5C 470.742,29.3621 467.242,39.3621 464,49.5C 458.786,72.0229 452.786,94.3562 446,116.5C 437.632,142.516 422.132,163.016 399.5,178C 380.055,187.346 359.888,189.513 339,184.5C 337.743,184.15 337.409,183.483 338,182.5C 355.607,156.553 378.441,136.72 406.5,123C 418.031,113.486 420.531,101.986 414,88.5C 406.981,78.8206 397.481,74.9873 385.5,77C 349.682,93.6443 320.349,118.144 297.5,150.5C 287.479,129.798 286.979,108.798 296,87.5C 304.557,67.2774 318.39,51.7774 337.5,41C 362.779,26.8491 389.779,18.6824 418.5,16.5 Z"/></g>
<g><path style="opacity:1" fill="#74b54b" d="M 237.5,128.5 C 237.819,133.363 237.486,138.03 236.5,142.5C 219.763,127.623 201.43,114.956 181.5,104.5C 163.875,98.3952 151.709,104.062 145,121.5C 143.412,132.07 146.578,140.904 154.5,148C 174.954,158.226 193.287,171.392 209.5,187.5C 192.944,195.42 175.61,197.587 157.5,194C 141.995,189.506 129.495,180.673 120,167.5C 109.778,152.514 102.444,136.181 98,118.5C 93.1512,96.0647 86.9845,74.0647 79.5,52.5C 126.026,46.7528 169.359,55.9195 209.5,80C 225.407,92.3073 234.74,108.474 237.5,128.5 Z"/></g>
<g><path style="opacity:1" fill="#73b44b" d="M 388.5,93.5 C 398.217,93.0365 401.717,97.3698 399,106.5C 397.833,107.667 396.667,108.833 395.5,110C 336.687,141.406 302.354,190.24 292.5,256.5C 286.862,255.78 281.196,255.447 275.5,255.5C 285.808,182.226 323.475,128.226 388.5,93.5 Z"/></g>
<g><path style="opacity:1" fill="#5d8a42" d="M 166.5,119.5 C 169.978,119.184 173.312,119.684 176.5,121C 213.725,141.892 244.225,170.059 268,205.5C 266.448,213.513 264.448,221.513 262,229.5C 238.232,187.731 205.232,155.398 163,132.5C 160.348,127.039 161.514,122.706 166.5,119.5 Z"/></g>
<g><path style="opacity:1" fill="#59833e" d="M 237.5,128.5 C 238.814,133.348 238.814,138.348 237.5,143.5C 236.893,143.376 236.56,143.043 236.5,142.5C 237.486,138.03 237.819,133.363 237.5,128.5 Z"/></g>
<g><path style="opacity:1" fill="#6a4329" d="M 274.5,272.5 C 287.261,271.773 298.928,274.94 309.5,282C 314.59,286.751 319.256,291.751 323.5,297C 326.167,297.667 328.833,297.667 331.5,297C 345.177,290.444 359.177,289.777 373.5,295C 376.833,297 380.167,299 383.5,301C 388.75,306.226 393.75,311.559 398.5,317C 400.5,317.667 402.5,317.667 404.5,317C 415.949,309.079 428.283,307.412 441.5,312C 446.044,313.882 450.044,316.549 453.5,320C 434.255,332.874 414.755,345.374 395,357.5C 392.647,343.616 384.814,334.449 371.5,330C 308.093,320.158 244.76,309.992 181.5,299.5C 188.933,293.523 197.433,290.856 207,291.5C 215.366,291.067 223.2,292.9 230.5,297C 233.167,297.667 235.833,297.667 238.5,297C 243.446,290.721 249.112,285.054 255.5,280C 261.515,276.312 267.849,273.812 274.5,272.5 Z"/></g>
<g><path style="opacity:1" fill="#f2bb94" d="M 461.5,377.5 C 458.167,379.833 454.833,382.167 451.5,384.5C 447.528,381.243 443.195,380.743 438.5,383C 392.5,418 346.5,453 300.5,488C 291.281,494.96 281.281,496.294 270.5,492C 212.352,472.728 154.018,454.062 95.5,436C 71.5,435.667 47.5,435.333 23.5,435C 20,434.167 17.8333,432 17,428.5C 16.3333,403.833 16.3333,379.167 17,354.5C 18.1667,352.667 19.6667,351.167 21.5,350C 43.8333,349.667 66.1667,349.333 88.5,349C 93.2363,347.919 97.9029,346.586 102.5,345C 120.325,335.921 137.992,326.588 155.5,317C 158.743,315.982 162.076,315.482 165.5,315.5C 232.928,325.345 300.262,335.845 367.5,347C 370.88,348.371 373.713,350.538 376,353.5C 379.426,362.56 376.926,369.394 368.5,374C 310.167,374.333 251.833,374.667 193.5,375C 186.295,379.442 185.628,384.775 191.5,391C 206.167,391.333 220.833,391.667 235.5,392C 251.347,403.758 267.013,415.758 282.5,428C 287.168,432.25 292.668,434.416 299,434.5C 305.751,433.544 311.918,431.044 317.5,427C 371.665,392.417 425.998,358.083 480.5,324C 482.5,323.333 484.5,323.333 486.5,324C 496.748,330.773 497.081,338.106 487.5,346C 478.576,352.712 469.743,359.546 461,366.5C 459.111,370.237 459.278,373.904 461.5,377.5 Z"/></g>
<g><path style="opacity:1" fill="#453328" d="M 338.5,393.5 C 314.167,392.167 289.833,392.167 265.5,393.5C 264.957,393.44 264.624,393.107 264.5,392.5C 289.5,391.167 314.5,391.167 339.5,392.5C 339.376,393.107 339.043,393.44 338.5,393.5 Z"/></g>
<g><path style="opacity:1" fill="#6a4329" d="M 265.5,393.5 C 289.833,392.167 314.167,392.167 338.5,393.5C 325.422,401.908 312.089,409.908 298.5,417.5C 287.334,409.748 276.334,401.748 265.5,393.5 Z"/></g>
</svg>
