<?xml version="1.0" encoding="UTF-8"?>
<!DOCTYPE svg PUBLIC "-//W3C//DTD SVG 1.1//EN" "http://www.w3.org/Graphics/SVG/1.1/DTD/svg11.dtd">
<svg xmlns="http://www.w3.org/2000/svg" version="1.1" width="512px" height="512px" style="shape-rendering:geometricPrecision; text-rendering:geometricPrecision; image-rendering:optimizeQuality; fill-rule:evenodd; clip-rule:evenodd" xmlns:xlink="http://www.w3.org/1999/xlink">
<g><path style="opacity:0.931" fill="#000000" d="M 354.5,4.5 C 385.72,2.01719 407.553,15.0172 420,43.5C 421.15,47.1117 421.983,50.7783 422.5,54.5C 452.669,52.7271 469.669,66.7271 473.5,96.5C 470.748,123.755 455.748,137.589 428.5,138C 424.488,137.151 422.488,134.651 422.5,130.5C 422.669,128.161 423.336,125.994 424.5,124C 431.126,121.542 437.792,119.209 444.5,117C 459.152,103.244 459.152,89.5778 444.5,76C 440.268,73.7006 435.768,72.2006 431,71.5C 425.331,73.1675 419.664,74.8342 414,76.5C 410.196,76.0308 407.529,74.0308 406,70.5C 406.179,41.7925 392.179,25.4592 364,21.5C 354.505,22.1079 346.005,25.2746 338.5,31C 332.791,37.0404 327.457,43.3737 322.5,50C 320.167,50.6667 317.833,50.6667 315.5,50C 311.062,45.5608 306.062,41.8941 300.5,39C 285.273,39.2427 279.273,46.9093 282.5,62C 282.435,64.5912 281.935,67.0912 281,69.5C 276.184,71.9969 271.351,74.4969 266.5,77C 254.56,88.1087 253.393,100.275 263,113.5C 275.889,123.343 288.222,122.676 300,111.5C 303.267,104.761 305.767,97.7612 307.5,90.5C 312.825,86.6962 317.658,87.3629 322,92.5C 322.972,114.523 313.139,129.356 292.5,137C 264.441,141.898 246.608,130.731 239,103.5C 236.985,82.8617 244.985,67.5284 263,57.5C 263.744,37.4252 273.911,25.2585 293.5,21C 301.709,20.4806 309.376,22.314 316.5,26.5C 327.016,15.2882 339.683,7.95491 354.5,4.5 Z"/></g>
<g><path style="opacity:0.873" fill="#000000" d="M 444.5,4.5 C 454.157,3.65772 457.99,7.99105 456,17.5C 451.281,22.3657 446.281,22.699 441,18.5C 438.267,12.7222 439.434,8.05552 444.5,4.5 Z"/></g>
<g><path style="opacity:0.947" fill="#000000" d="M 177.5,37.5 C 181.803,36.7962 185.303,38.1295 188,41.5C 189.021,97.1618 189.854,152.828 190.5,208.5C 211.814,218.823 232.814,229.656 253.5,241C 256.947,315.704 249.78,389.537 232,462.5C 230.57,471.31 225.403,474.81 216.5,473C 147.5,473.667 78.5,473.667 9.5,473C 8,471.5 6.5,470 5,468.5C 4.33333,359.833 4.33333,251.167 5,142.5C 6.21398,140.951 7.71398,139.785 9.5,139C 14.9231,138.685 20.2564,139.352 25.5,141C 66.6174,150.863 107.617,161.196 148.5,172C 151.102,172.883 153.269,174.383 155,176.5C 155.667,262.167 155.667,347.833 155,433.5C 152.646,439.095 148.479,440.928 142.5,439C 140.032,436.772 138.865,433.938 139,430.5C 138.833,349.498 138.333,268.498 137.5,187.5C 99.2804,177.362 60.9471,167.695 22.5,158.5C 21.5667,257.496 21.2334,356.496 21.5,455.5C 86.1667,455.5 150.833,455.5 215.5,455.5C 230.593,388.666 237.926,320.999 237.5,252.5C 215.447,242.059 193.947,230.725 173,218.5C 171.712,170.856 171.045,123.189 171,75.5C 143.953,81.3841 116.786,87.8841 89.5,95C 88.9543,108.494 88.121,121.994 87,135.5C 75.6947,141.16 70.3614,137.493 71,124.5C 70.3333,111.5 70.3333,98.5 71,85.5C 72.5,84 74,82.5 75.5,81C 107.258,71.8937 139.258,63.727 171.5,56.5C 171.175,51.4012 171.675,46.4012 173,41.5C 174.397,39.9297 175.897,38.5964 177.5,37.5 Z"/></g>
<g><path style="opacity:0.863" fill="#000000" d="M 227.5,37.5 C 235.986,37.1514 239.82,41.1514 239,49.5C 238.215,51.286 237.049,52.786 235.5,54C 226.647,56.5176 222.147,53.351 222,44.5C 222.967,41.3794 224.8,39.046 227.5,37.5 Z"/></g>
<g><path style="opacity:0.917" fill="#000000" d="M 395.5,91.5 C 404.153,90.9867 407.653,94.9867 406,103.5C 398.09,113.045 387.923,118.879 375.5,121C 370.5,121.667 365.5,121.667 360.5,121C 354.253,116.486 353.92,111.486 359.5,106C 373.027,104.729 385.027,99.8959 395.5,91.5 Z"/></g>
<g><path style="opacity:0.921" fill="#000000" d="M 110.5,104.5 C 115.28,103.641 118.78,105.308 121,109.5C 121.667,117.5 121.667,125.5 121,133.5C 117.634,138.609 113.134,139.776 107.5,137C 106.283,135.352 105.45,133.519 105,131.5C 104.104,123.754 104.437,116.087 106,108.5C 107.397,106.93 108.897,105.596 110.5,104.5 Z"/></g>
<g><path style="opacity:0.905" fill="#000000" d="M 143.5,104.5 C 148.814,103.74 152.647,105.74 155,110.5C 157.129,118.932 156.795,127.266 154,135.5C 151.005,138.265 147.505,139.098 143.5,138C 141.333,137.167 139.833,135.667 139,133.5C 138.333,125.167 138.333,116.833 139,108.5C 140.397,106.93 141.897,105.596 143.5,104.5 Z"/></g>
<g><path style="opacity:0.948" fill="#000000" d="M 242.5,155.5 C 306.834,155.333 371.168,155.5 435.5,156C 436.416,156.374 437.25,156.874 438,157.5C 439.204,161.716 439.87,166.049 440,170.5C 440.077,222.191 441.077,273.858 443,325.5C 446.906,372.51 454.073,419.01 464.5,465C 464.238,470.501 461.238,473.334 455.5,473.5C 451.608,472.779 449.108,470.445 448,466.5C 434.126,413.052 426.126,358.718 424,303.5C 423.063,259.838 422.563,216.171 422.5,172.5C 367.167,172.5 311.833,172.5 256.5,172.5C 256.5,183.167 256.5,193.833 256.5,204.5C 304.838,204.527 353.171,205.027 401.5,206C 407.747,210.514 408.08,215.514 402.5,221C 400.167,221.333 397.833,221.667 395.5,222C 344.833,222.667 294.167,222.667 243.5,222C 242,220.5 240.5,219 239,217.5C 238.333,198.167 238.333,178.833 239,159.5C 240.376,158.295 241.542,156.962 242.5,155.5 Z"/></g>
<g><path style="opacity:0.896" fill="#000000" d="M 78.5,204.5 C 83.0213,204.392 86.188,206.392 88,210.5C 88.6667,218.167 88.6667,225.833 88,233.5C 87.2155,235.286 86.0488,236.786 84.5,238C 79.4744,239.494 75.3077,238.327 72,234.5C 70.0869,226.152 70.0869,217.818 72,209.5C 73.8049,207.174 75.9716,205.508 78.5,204.5 Z"/></g>
<g><path style="opacity:0.906" fill="#000000" d="M 41.5,205.5 C 49.632,203.463 54.132,206.463 55,214.5C 55.4528,221.192 55.1194,227.859 54,234.5C 47.83,241.465 42.4966,240.798 38,232.5C 37.3333,225.833 37.3333,219.167 38,212.5C 38.6529,209.861 39.8196,207.527 41.5,205.5 Z"/></g>
<g><path style="opacity:0.906" fill="#000000" d="M 109.5,205.5 C 112.187,205.336 114.854,205.503 117.5,206C 119.333,206.5 120.5,207.667 121,209.5C 121.667,217.833 121.667,226.167 121,234.5C 115.307,241.252 109.974,240.918 105,233.5C 104.333,225.833 104.333,218.167 105,210.5C 106.025,208.313 107.525,206.646 109.5,205.5 Z"/></g>
<g><path style="opacity:0.925" fill="#000000" d="M 212.5,254.5 C 221.828,256.703 225.161,262.537 222.5,272C 222.607,276.612 222.107,281.112 221,285.5C 215.478,291.022 210.478,290.689 206,284.5C 205.333,276.167 205.333,267.833 206,259.5C 207.78,257.206 209.947,255.539 212.5,254.5 Z"/></g>
<g><path style="opacity:0.905" fill="#000000" d="M 42.5,255.5 C 49.9483,254.131 54.115,257.131 55,264.5C 55.7301,271.548 55.3968,278.548 54,285.5C 47.4373,291.321 42.104,290.321 38,282.5C 37.3333,275.5 37.3333,268.5 38,261.5C 39.332,259.34 40.832,257.34 42.5,255.5 Z"/></g>
<g><path style="opacity:0.903" fill="#000000" d="M 76.5,255.5 C 81.7419,254.271 85.5752,255.937 88,260.5C 88.6667,268.167 88.6667,275.833 88,283.5C 82.565,291.255 76.8983,291.255 71,283.5C 70.5652,275.48 70.8986,267.48 72,259.5C 73.3968,257.93 74.8968,256.596 76.5,255.5 Z"/></g>
<g><path style="opacity:0.906" fill="#000000" d="M 109.5,255.5 C 114.223,254.553 118.056,255.886 121,259.5C 121.667,267.833 121.667,276.167 121,284.5C 115.307,291.252 109.974,290.918 105,283.5C 104.333,275.833 104.333,268.167 105,260.5C 106.025,258.313 107.525,256.646 109.5,255.5 Z"/></g>
<g><path style="opacity:0.915" fill="#000000" d="M 176.5,255.5 C 181.223,254.553 185.056,255.886 188,259.5C 188.667,267.833 188.667,276.167 188,284.5C 181.658,291.492 176.325,290.825 172,282.5C 171.137,274.436 171.47,266.436 173,258.5C 174.145,257.364 175.312,256.364 176.5,255.5 Z"/></g>
<g><path style="opacity:0.898" fill="#000000" d="M 78.5,304.5 C 87.8051,306.584 91.1385,312.417 88.5,322C 88.6068,326.612 88.1068,331.112 87,335.5C 82.6489,340.254 77.9823,340.588 73,336.5C 71.1303,333.078 70.297,329.411 70.5,325.5C 70.9339,320.161 71.4339,314.827 72,309.5C 73.8049,307.174 75.9716,305.508 78.5,304.5 Z"/></g>
<g><path style="opacity:0.898" fill="#000000" d="M 42.5,305.5 C 47.7403,304.538 51.9069,306.205 55,310.5C 55.787,318.881 55.4536,327.214 54,335.5C 50.1226,339.542 45.6226,340.375 40.5,338C 39.1367,336.055 38.3034,333.888 38,331.5C 37.3333,324.833 37.3333,318.167 38,311.5C 39.332,309.34 40.832,307.34 42.5,305.5 Z"/></g>
<g><path style="opacity:0.915" fill="#000000" d="M 109.5,305.5 C 114.126,304.7 117.96,306.034 121,309.5C 121.667,317.833 121.667,326.167 121,334.5C 117.987,339.535 113.82,340.702 108.5,338C 106.951,336.786 105.785,335.286 105,333.5C 104.333,326.167 104.333,318.833 105,311.5C 105.599,308.746 107.099,306.746 109.5,305.5 Z"/></g>
<g><path style="opacity:0.892" fill="#000000" d="M 176.5,305.5 C 184.444,304.287 188.61,307.621 189,315.5C 189.877,322.249 189.544,328.916 188,335.5C 184.453,339.428 180.286,340.262 175.5,338C 173.513,336.681 172.346,334.848 172,332.5C 171.178,324.445 171.512,316.445 173,308.5C 174.145,307.364 175.312,306.364 176.5,305.5 Z"/></g>
<g><path style="opacity:0.924" fill="#000000" d="M 209.5,305.5 C 214.901,304.342 219.067,306.009 222,310.5C 222.667,317.833 222.667,325.167 222,332.5C 220.824,338.341 217.324,340.507 211.5,339C 208.943,338.315 207.109,336.815 206,334.5C 205.333,326.5 205.333,318.5 206,310.5C 206.997,308.677 208.164,307.01 209.5,305.5 Z"/></g>
<g><path style="opacity:0.901" fill="#000000" d="M 42.5,355.5 C 50.3995,354.237 54.5661,357.57 55,365.5C 55.7109,372.215 55.3776,378.882 54,385.5C 47.8633,391.255 42.53,390.588 38,383.5C 37.3333,376.5 37.3333,369.5 38,362.5C 38.5303,359.415 40.0303,357.082 42.5,355.5 Z"/></g>
<g><path style="opacity:0.897" fill="#000000" d="M 76.5,355.5 C 81.9262,354.793 85.7595,356.793 88,361.5C 88.6667,368.833 88.6667,376.167 88,383.5C 86.5836,387.308 83.7502,389.308 79.5,389.5C 73.3414,388.553 70.5081,384.886 71,378.5C 70.2608,372.442 70.5941,366.442 72,360.5C 73.025,358.313 74.525,356.646 76.5,355.5 Z"/></g>
<g><path style="opacity:0.924" fill="#000000" d="M 110.5,355.5 C 114.909,354.618 118.409,355.952 121,359.5C 121.667,367.833 121.667,376.167 121,384.5C 117.564,389.827 113.064,390.827 107.5,387.5C 106.416,386.335 105.583,385.002 105,383.5C 104.099,375.421 104.432,367.421 106,359.5C 107.397,357.93 108.897,356.596 110.5,355.5 Z"/></g>
<g><path style="opacity:0.901" fill="#000000" d="M 177.5,355.5 C 184.419,354.588 188.253,357.588 189,364.5C 189.829,371.234 189.496,377.901 188,384.5C 184.987,389.535 180.82,390.702 175.5,388C 173.513,386.681 172.346,384.848 172,382.5C 171.104,374.754 171.437,367.087 173,359.5C 174.397,357.93 175.897,356.596 177.5,355.5 Z"/></g>
<g><path style="opacity:0.902" fill="#000000" d="M 210.5,355.5 C 216.521,354.37 220.354,356.703 222,362.5C 222.667,366.833 222.667,371.167 222,375.5C 217.375,382.428 212.042,383.095 206,377.5C 205.333,371.833 205.333,366.167 206,360.5C 207.025,358.313 208.525,356.646 210.5,355.5 Z"/></g>
<g><path style="opacity:0.893" fill="#000000" d="M 44.5,405.5 C 51.4505,405.368 54.9505,408.701 55,415.5C 55.6667,422.167 55.6667,428.833 55,435.5C 50.7998,439.714 45.9664,440.548 40.5,438C 39.5399,436.581 38.7065,435.081 38,433.5C 37.1367,425.436 37.47,417.436 39,409.5C 40.4998,407.531 42.3331,406.198 44.5,405.5 Z"/></g>
<g><path style="opacity:0.902" fill="#000000" d="M 77.5,405.5 C 80.6249,405.865 83.6249,406.698 86.5,408C 87.1905,409.067 87.6905,410.234 88,411.5C 88.6667,418.833 88.6667,426.167 88,433.5C 87.015,437.666 84.3484,439.666 80,439.5C 77.1861,439.592 74.8527,438.592 73,436.5C 70.0628,427.967 69.7295,419.3 72,410.5C 73.1065,407.887 74.9399,406.22 77.5,405.5 Z"/></g>
<g><path style="opacity:0.92" fill="#000000" d="M 112.5,405.5 C 115.192,406.009 117.692,407.009 120,408.5C 121.112,413.223 121.612,418.056 121.5,423C 121.333,427.167 121.167,431.333 121,435.5C 116.947,440.008 112.28,440.674 107,437.5C 104.966,432.927 104.133,428.094 104.5,423C 104.431,418.415 104.931,413.915 106,409.5C 107.792,407.372 109.958,406.039 112.5,405.5 Z"/></g>
<g><path style="opacity:0.898" fill="#000000" d="M 177.5,405.5 C 182.152,404.984 185.652,406.651 188,410.5C 190,418.833 190,427.167 188,435.5C 184.229,439.788 179.729,440.621 174.5,438C 172.996,436.509 172.163,434.676 172,432.5C 171.144,424.768 171.477,417.102 173,409.5C 174.397,407.93 175.897,406.596 177.5,405.5 Z"/></g>
<g><path style="opacity:0.965" fill="#000000" d="M 11.5,489.5 C 52.5014,489.333 93.5014,489.5 134.5,490C 139.833,495.333 139.833,500.667 134.5,506C 92.8333,506.667 51.1667,506.667 9.5,506C 4.3856,502.544 3.21894,498.044 6,492.5C 7.71891,491.131 9.55225,490.131 11.5,489.5 Z"/></g>
<g><path style="opacity:0.967" fill="#000000" d="M 159.5,489.5 C 201.501,489.333 243.501,489.5 285.5,490C 289.806,494.188 290.473,498.855 287.5,504C 285.285,505.044 282.952,505.71 280.5,506C 240.167,506.667 199.833,506.667 159.5,506C 154.203,500.501 154.203,495.001 159.5,489.5 Z"/></g>
<g><path style="opacity:0.928" fill="#000000" d="M 310.5,489.5 C 319.276,489.059 327.942,489.559 336.5,491C 340.881,496.747 340.214,501.747 334.5,506C 326.5,506.667 318.5,506.667 310.5,506C 303.87,500.55 303.87,495.05 310.5,489.5 Z"/></g>
<g><path style="opacity:0.967" fill="#000000" d="M 360.5,489.5 C 406.168,489.333 451.835,489.5 497.5,490C 505.035,490.211 507.869,494.044 506,501.5C 504.954,503.09 503.787,504.59 502.5,506C 455.167,506.667 407.833,506.667 360.5,506C 353.965,500.63 353.965,495.13 360.5,489.5 Z"/></g>
</svg>
