<?xml version="1.0" encoding="UTF-8"?>
<!DOCTYPE svg PUBLIC "-//W3C//DTD SVG 1.1//EN" "http://www.w3.org/Graphics/SVG/1.1/DTD/svg11.dtd">
<svg xmlns="http://www.w3.org/2000/svg" version="1.1" width="512px" height="512px" style="shape-rendering:geometricPrecision; text-rendering:geometricPrecision; image-rendering:optimizeQuality; fill-rule:evenodd; clip-rule:evenodd" xmlns:xlink="http://www.w3.org/1999/xlink">
<g><path style="opacity:0.995" fill="#000000" d="M 11.5,7.5 C 30.1696,7.33339 48.8363,7.50005 67.5,8C 69.3333,8.5 70.5,9.66667 71,11.5C 71.4988,15.4862 71.6655,19.4862 71.5,23.5C 80.8393,23.3335 90.1726,23.5002 99.5,24C 100.416,24.3742 101.25,24.8742 102,25.5C 103.468,40.7371 103.968,56.0704 103.5,71.5C 116.833,71.5 130.167,71.5 143.5,71.5C 143.5,66.1667 143.5,60.8333 143.5,55.5C 136.825,55.6663 130.158,55.4996 123.5,55C 122.584,54.6258 121.75,54.1258 121,53.5C 119.369,39.5941 119.036,25.5941 120,11.5C 120.5,9.66667 121.667,8.5 123.5,8C 152.833,7.33333 182.167,7.33333 211.5,8C 212.91,8.36775 213.91,9.20108 214.5,10.5C 215.15,17.4532 215.483,24.4532 215.5,31.5C 215.633,38.9336 215.133,46.267 214,53.5C 213.25,54.1258 212.416,54.6258 211.5,55C 204.842,55.4996 198.175,55.6663 191.5,55.5C 191.5,60.8333 191.5,66.1667 191.5,71.5C 212.263,72.1337 225.43,82.467 231,102.5C 231.5,118.83 231.667,135.163 231.5,151.5C 235.514,151.334 239.514,151.501 243.5,152C 245.333,152.5 246.5,153.667 247,155.5C 247.964,169.594 247.631,183.594 246,197.5C 245.25,198.126 244.416,198.626 243.5,199C 214.167,199.667 184.833,199.667 155.5,199C 154.584,198.626 153.75,198.126 153,197.5C 151.369,183.594 151.036,169.594 152,155.5C 152.5,153.667 153.667,152.5 155.5,152C 159.486,151.501 163.486,151.334 167.5,151.5C 167.5,146.167 167.5,140.833 167.5,135.5C 146.167,135.5 124.833,135.5 103.5,135.5C 103.667,160.836 103.5,186.169 103,211.5C 102.5,213.333 101.333,214.5 99.5,215C 90.1726,215.5 80.8393,215.666 71.5,215.5C 71.6667,310.167 71.5,404.834 71,499.5C 70.5,501.333 69.3333,502.5 67.5,503C 48.8333,503.667 30.1667,503.667 11.5,503C 9.66667,502.5 8.5,501.333 8,499.5C 7.33333,336.833 7.33333,174.167 8,11.5C 8.68972,9.64977 9.85639,8.31643 11.5,7.5 Z M 23.5,23.5 C 34.1667,23.5 44.8333,23.5 55.5,23.5C 55.5,178.167 55.5,332.833 55.5,487.5C 44.8333,487.5 34.1667,487.5 23.5,487.5C 23.5,332.833 23.5,178.167 23.5,23.5 Z M 135.5,23.5 C 156.833,23.5 178.167,23.5 199.5,23.5C 199.5,28.8333 199.5,34.1667 199.5,39.5C 178.167,39.5 156.833,39.5 135.5,39.5C 135.5,34.1667 135.5,28.8333 135.5,23.5 Z M 71.5,39.5 C 76.8333,39.5 82.1667,39.5 87.5,39.5C 87.5,92.8333 87.5,146.167 87.5,199.5C 82.1667,199.5 76.8333,199.5 71.5,199.5C 71.5,146.167 71.5,92.8333 71.5,39.5 Z M 159.5,55.5 C 164.833,55.5 170.167,55.5 175.5,55.5C 175.5,60.8333 175.5,66.1667 175.5,71.5C 170.167,71.5 164.833,71.5 159.5,71.5C 159.5,66.1667 159.5,60.8333 159.5,55.5 Z M 103.5,87.5 C 108.833,87.5 114.167,87.5 119.5,87.5C 119.5,98.1667 119.5,108.833 119.5,119.5C 114.167,119.5 108.833,119.5 103.5,119.5C 103.5,108.833 103.5,98.1667 103.5,87.5 Z M 135.5,87.5 C 156.536,87.0839 177.536,87.5839 198.5,89C 206.428,91.9269 211.594,97.4269 214,105.5C 215.399,120.79 215.899,136.123 215.5,151.5C 204.833,151.5 194.167,151.5 183.5,151.5C 183.666,142.161 183.5,132.827 183,123.5C 182.626,122.584 182.126,121.75 181.5,121C 166.263,119.532 150.93,119.032 135.5,119.5C 135.5,108.833 135.5,98.1667 135.5,87.5 Z M 167.5,167.5 C 188.833,167.5 210.167,167.5 231.5,167.5C 231.5,172.833 231.5,178.167 231.5,183.5C 210.167,183.5 188.833,183.5 167.5,183.5C 167.5,178.167 167.5,172.833 167.5,167.5 Z"/></g>
<g><path style="opacity:1" fill="#000000" d="M 255.5,199.5 C 260.833,199.5 266.167,199.5 271.5,199.5C 271.5,204.833 271.5,210.167 271.5,215.5C 266.167,215.5 260.833,215.5 255.5,215.5C 255.5,210.167 255.5,204.833 255.5,199.5 Z"/></g>
<g><path style="opacity:0.93" fill="#000000" d="M 195.5,207.5 C 199.257,207.071 202.757,207.737 206,209.5C 213,219.833 220,230.167 227,240.5C 237.051,262.553 230.885,278.053 208.5,287C 188.909,290.958 175.409,283.791 168,265.5C 167.13,259.083 167.464,252.749 169,246.5C 176.88,232.704 185.713,219.704 195.5,207.5 Z M 198.5,231.5 C 204.113,238.009 209.279,245.009 214,252.5C 215.05,267.1 208.217,272.933 193.5,270C 185.751,266.577 182.918,260.744 185,252.5C 190.02,245.783 194.52,238.783 198.5,231.5 Z"/></g>
<g><path style="opacity:1" fill="#000000" d="M 119.5,231.5 C 124.833,231.5 130.167,231.5 135.5,231.5C 135.5,236.833 135.5,242.167 135.5,247.5C 130.167,247.5 124.833,247.5 119.5,247.5C 119.5,242.167 119.5,236.833 119.5,231.5 Z"/></g>
<g><path style="opacity:1" fill="#000000" d="M 279.5,255.5 C 284.833,255.5 290.167,255.5 295.5,255.5C 295.5,260.833 295.5,266.167 295.5,271.5C 290.167,271.5 284.833,271.5 279.5,271.5C 279.5,266.167 279.5,260.833 279.5,255.5 Z"/></g>
<g><path style="opacity:0.961" fill="#000000" d="M 91.5,295.5 C 222.167,295.333 352.834,295.5 483.5,296C 485.333,296.5 486.5,297.667 487,299.5C 487.531,364.615 463.031,418.115 413.5,460C 357.473,502.337 295.473,514.004 227.5,495C 162.333,472.5 118.5,428.667 96,363.5C 89.4021,342.649 86.7354,321.316 88,299.5C 88.6897,297.65 89.8564,296.316 91.5,295.5 Z M 104.5,311.5 C 226.5,311.5 348.5,311.5 470.5,311.5C 470.431,316.854 470.098,322.187 469.5,327.5C 459.5,327.5 449.5,327.5 439.5,327.5C 439.5,332.833 439.5,338.167 439.5,343.5C 448.525,343.168 457.525,343.502 466.5,344.5C 457.746,379.359 440.746,409.359 415.5,434.5C 411.5,431.167 407.833,427.5 404.5,423.5C 407.5,420.167 410.5,416.833 413.5,413.5C 409.802,408.616 405.468,404.782 400.5,402C 397.651,405.016 394.651,407.85 391.5,410.5C 386.946,407.133 383.446,403.133 381,398.5C 384.016,395.651 386.85,392.651 389.5,389.5C 385.802,384.616 381.468,380.782 376.5,378C 373.651,381.016 370.651,383.85 367.5,386.5C 364.167,383.5 360.833,380.5 357.5,377.5C 353.167,381.167 349.167,385.167 345.5,389.5C 348.5,392.833 351.5,396.167 354.5,399.5C 351.85,402.651 349.016,405.651 346,408.5C 348.782,413.468 352.616,417.802 357.5,421.5C 360.651,418.85 363.651,416.016 366.5,413C 371.133,415.446 375.133,418.946 378.5,423.5C 375.5,426.833 372.5,430.167 369.5,433.5C 373.198,438.384 377.532,442.218 382.5,445C 385.349,441.984 388.349,439.15 391.5,436.5C 394.818,439.317 397.985,442.317 401,445.5C 401.617,446.449 401.451,447.282 400.5,448C 344.122,489.173 283.122,497.673 217.5,473.5C 221.023,461.396 222.19,449.062 221,436.5C 219.693,428.721 216.86,421.555 212.5,415C 220.167,407.333 227.833,399.667 235.5,392C 246.167,391.333 256.833,391.333 267.5,392C 274,398.5 280.5,405 287,411.5C 287.5,420.827 287.666,430.161 287.5,439.5C 292.833,439.5 298.167,439.5 303.5,439.5C 303.667,427.495 303.5,415.495 303,403.5C 297.017,396.683 290.851,390.016 284.5,383.5C 290.851,376.984 297.017,370.317 303,363.5C 303.5,356.842 303.666,350.175 303.5,343.5C 343.5,343.5 383.5,343.5 423.5,343.5C 423.5,338.167 423.5,332.833 423.5,327.5C 317.5,327.5 211.5,327.5 105.5,327.5C 104.902,322.187 104.569,316.854 104.5,311.5 Z M 108.5,343.5 C 168.167,343.5 227.833,343.5 287.5,343.5C 287.666,347.514 287.499,351.514 287,355.5C 280.5,362 274,368.5 267.5,375C 254.167,375.333 240.833,375.667 227.5,376C 218.321,384.513 209.155,393.013 200,401.5C 187.988,395.715 176.155,389.549 164.5,383C 150.383,377.253 136.216,377.086 122,382.5C 116.203,369.942 111.703,356.942 108.5,343.5 Z M 137.5,395.5 C 144.747,395.183 151.747,396.35 158.5,399C 166.609,404.388 175.276,408.721 184.5,412C 203.965,425.326 209.465,443.159 201,465.5C 171.555,449.197 148.055,426.697 130.5,398C 132.927,397.098 135.26,396.264 137.5,395.5 Z"/></g>
</svg>
